# Blender 4.0.0
# www.blender.org
mtllib bunny_309_faces_rotated2.mtl
o bunny_309_faces
v 31.299919 58.979397 3.440114
v 30.276674 63.612442 23.500664
v 26.077312 58.745766 3.314619
v 5.830348 32.039459 13.418786
v -5.144528 44.210968 8.632338
v -26.178310 38.376419 6.693905
v 25.450533 5.121497 -18.751890
v 26.137697 0.025568 -14.011306
v 27.783293 -0.000001 -17.760994
v 7.610097 22.867079 -23.646101
v 5.045757 32.780453 -25.620148
v 16.456814 20.629972 -24.045130
v -28.700262 8.161711 3.340352
v -28.454979 -0.000001 -8.018470
v -21.121647 0.000000 0.538285
v -40.448925 7.735427 -11.934053
v -42.906971 17.294823 -10.385096
v -40.297981 15.910969 -15.358828
v 27.990417 46.000179 -29.731907
v 29.583704 43.251591 -28.943548
v 26.841818 41.450890 -21.838560
v 39.749767 28.691017 -3.904022
v 35.988811 21.400431 -2.238295
v 39.771622 29.976778 -13.284896
v 33.498840 19.937489 -15.609375
v -1.859697 6.211344 -27.553539
v -8.508502 8.787572 -30.894899
v 1.303511 7.801363 -26.751310
v -0.214484 31.225178 -31.504072
v -5.438560 35.995865 -25.540173
v 12.185984 4.158224 -23.799353
v 8.724161 2.682399 -28.906160
v 3.687130 5.555917 -29.806290
v 18.058626 45.300163 -18.498770
v -2.698994 46.533913 -19.992718
v -0.635312 51.880661 -12.501763
v 6.492950 9.738844 -21.036688
v -35.135990 12.305649 -18.504456
v -35.512177 20.552298 -11.475348
v -31.836552 13.776244 -17.395786
v -26.148422 45.869160 -13.224381
v -28.145479 43.865211 -2.886641
v -23.679300 46.416039 0.919656
v 27.669039 64.773987 25.751457
v -1.690974 69.904747 5.340632
v -4.010962 72.274277 10.656672
v 2.842134 82.654449 6.397271
v 34.639359 73.892181 21.325550
v 27.275192 73.913254 31.888042
v 33.175571 63.421860 1.760872
v 33.469212 64.389961 -19.711439
v 36.624279 65.568573 -12.005938
v 40.908051 63.523056 -9.346883
v -1.636168 82.272003 14.304574
v 24.395386 65.736412 -1.863578
v 0.055818 83.930130 10.879907
v 12.440618 -0.000002 -24.504110
v 3.126163 30.678473 18.676508
v 6.830198 24.559362 19.091150
v 9.701233 26.338673 12.793747
v 22.428841 11.923490 -1.742682
v 28.208879 13.587169 -9.502586
v 23.527834 6.854613 -3.314715
v 28.113880 0.000000 2.688566
v 29.445520 3.325568 -4.873162
v 17.784000 60.217892 -5.515227
v 10.067734 67.753922 -3.004576
v 38.658390 40.435280 -11.023487
v 38.073936 41.000217 -4.053634
v 32.197918 39.593330 -21.388479
v 26.980059 26.931488 -25.372004
v 20.018412 8.042207 -17.214729
v 42.046021 45.981529 -24.403423
v 39.518044 43.627064 -26.424168
v 26.199421 -0.000002 -24.203749
v -16.392509 0.000001 11.142338
v -15.502497 4.651628 -25.704918
v -28.488762 7.561244 -18.320759
v -32.911057 6.684742 -18.517302
v 19.270107 59.855949 -0.763915
v 24.524895 61.666595 0.869633
v 38.602757 52.692436 -27.334787
v 34.822479 52.483646 -30.322853
v 26.321444 79.565758 32.633244
v 26.925514 65.176147 -0.728805
v 24.411665 74.600754 33.497734
v 5.149230 -0.000002 -30.996933
v 14.727881 51.637341 -9.299901
v 18.509192 51.946953 0.991533
v 32.724941 43.660000 2.222358
v 40.442410 43.460880 -4.356774
v 21.352440 5.306439 2.694788
v 20.900290 15.746470 4.123915
v 20.569231 12.630916 -14.120286
v 23.760109 20.866959 -23.706114
v -10.976051 -0.000001 -13.299089
v -17.839239 -0.000000 -2.884053
v -17.767031 0.006485 -2.896473
v -27.064531 2.888230 -16.386478
v 23.423550 66.720016 -5.343898
v 32.638649 65.848839 -1.428467
v -21.728209 9.642508 13.248791
v -22.626472 6.282228 9.696482
v 2.112100 5.704845 14.611610
v 3.296441 21.099981 20.519049
v -0.010314 28.137072 20.589989
v 19.020100 10.665792 -9.924359
v 3.407541 26.238064 -31.688229
v -20.946695 47.492477 -18.117418
v -23.473633 32.202198 -26.248779
v 29.979052 80.458572 30.401939
v 33.287312 79.134552 27.552374
v 19.990990 65.449562 -7.879867
v -35.185879 19.541977 -3.012735
v -31.362278 30.462791 6.253376
v -39.048817 13.619778 0.698065
v -42.287338 13.667420 -3.710405
v -40.373409 8.107131 -3.739574
v 25.932985 69.189209 31.100037
v 28.195036 67.225586 29.585228
v -3.199454 80.818344 15.027567
v -2.066054 82.265373 13.667428
v 18.462149 7.585687 -21.307962
v 23.895525 5.106710 -24.335188
v 8.217346 78.235962 1.267327
v -13.794762 53.623520 -4.505841
v 11.577179 47.301178 5.212078
v -17.921715 46.453281 5.227354
v 18.600195 15.715864 -20.593571
v 14.233088 7.229621 -22.860771
v -35.598122 7.043984 1.187966
v 32.127468 27.020670 7.327308
v 26.551491 20.799030 7.957169
v 22.815485 64.880135 -18.301788
v -6.845086 20.570957 -33.366192
v 22.321655 -0.000002 -27.056862
v -39.928936 20.661507 -10.603861
v -4.204768 78.351051 15.437615
v -41.106087 18.274170 -3.119932
v 18.714115 6.312798 -9.888162
v 31.171257 -0.000000 -4.392760
v 25.030268 -0.000001 -12.079761
v -4.048301 74.013153 13.276500
v 14.358550 6.462602 5.402462
v 14.551778 0.000001 14.001164
v 17.455999 0.000000 5.972134
v 10.381671 3.783379 14.939909
v 8.500105 0.000001 16.174938
v 38.117439 47.124329 0.659454
v 22.793581 37.439838 9.446839
v 9.660705 15.130269 6.864011
v 9.081678 8.181866 5.360137
v -21.162863 1.776826 -23.660189
v -14.933218 -0.000002 -25.826468
v -3.236013 -0.000002 -28.581669
v 7.072630 7.622357 11.186077
v 5.569385 7.116872 13.129256
vn 0.0381 -0.9732 0.2267
vn -0.1544 0.2379 0.9589
vn 0.8218 0.4435 0.3576
vn -0.0991 -0.2189 -0.9707
vn -0.5564 -0.6804 0.4769
vn -0.8917 -0.1607 -0.4230
vn -0.7285 -0.5423 -0.4186
vn 0.8811 -0.4688 -0.0622
vn 0.8541 -0.5097 -0.1033
vn 0.3549 -0.2518 -0.9004
vn 0.2578 0.8520 -0.4557
vn 0.4894 0.6913 -0.5315
vn 0.0903 0.7987 -0.5949
vn 0.2011 0.8576 -0.4734
vn -0.1888 0.7152 -0.6730
vn -0.0327 0.6475 -0.7614
vn -0.5334 0.8437 0.0605
vn -0.1901 -0.9447 0.2673
vn -0.8040 0.3270 -0.4966
vn 0.5280 -0.7646 0.3697
vn 0.5709 0.7438 -0.3475
vn 0.6629 0.4910 0.5652
vn 0.7983 0.1478 -0.5839
vn 0.7272 0.4738 0.4967
vn 0.7523 0.4590 0.4727
vn 0.5610 -0.7896 0.2485
vn 0.5441 0.7285 0.4162
vn -0.5835 -0.3539 -0.7309
vn 0.9931 0.0893 0.0760
vn 0.6930 -0.0596 -0.7184
vn 0.5043 0.6236 0.5973
vn -0.2831 -0.8980 -0.3368
vn 0.7204 -0.6860 -0.1020
vn -0.0000 -1.0000 -0.0000
vn 0.0061 -0.7860 -0.6182
vn 0.0408 0.0184 -0.9990
vn -0.4095 0.4996 0.7634
vn 0.6206 -0.0161 -0.7840
vn -0.9304 0.3301 -0.1592
vn 0.3206 0.2784 -0.9054
vn -0.9247 0.1819 0.3343
vn 0.5681 -0.4630 0.6804
vn 0.9407 -0.0057 0.3391
vn 0.9753 0.1662 0.1458
vn 0.3694 -0.7621 -0.5318
vn -0.1006 0.9927 -0.0663
vn -0.4134 -0.8374 -0.3577
vn -0.0278 0.9599 0.2790
vn -0.6267 -0.4808 0.6133
vn -0.1108 -0.3486 0.9307
vn 0.2037 0.1884 0.9607
vn 0.4020 0.1799 0.8978
vn 0.8590 0.3121 -0.4059
vn 0.8179 -0.2341 -0.5255
vn -0.6868 0.4265 -0.5886
vn 0.6304 -0.0853 0.7715
vn -0.5195 -0.1669 -0.8380
vn -0.9299 0.3614 -0.0684
vn 0.8942 0.3236 -0.3094
vn -0.9585 0.2763 0.0699
vn -0.7773 -0.2705 0.5681
vn 0.3365 -0.3008 0.8924
vn -0.5418 0.7606 0.3577
vn 0.4023 0.8804 -0.2511
vn 0.3643 0.9255 -0.1039
vn -0.3652 0.2953 -0.8829
vn -0.5331 0.2369 -0.8122
vn 0.1175 0.9442 0.3076
vn -0.4793 0.6054 0.6354
vn -0.6796 0.7149 -0.1645
vn 0.0611 0.8550 0.5150
vn 0.1008 0.4415 0.8916
vn -0.4846 0.8614 0.1522
vn 0.0538 -0.2910 -0.9552
vn 0.0565 -0.5572 -0.8284
vn 0.2379 0.7004 -0.6729
vn 0.5954 0.6845 0.4207
vn 0.3692 0.9222 0.1147
vn -0.7177 -0.4062 0.5657
vn -0.8249 -0.1689 0.5395
vn -0.7936 -0.1710 0.5840
vn 0.3380 0.0767 -0.9380
vn 0.7026 -0.1775 -0.6890
vn -0.0644 -0.0772 -0.9949
vn -0.4710 -0.8379 0.2757
vn -0.5513 -0.8332 0.0429
vn 0.6508 0.7335 0.1958
vn -0.6104 -0.6964 0.3774
vn -0.7088 -0.6306 0.3161
vn -0.0501 -0.8116 0.5821
vn -0.6369 -0.2878 -0.7152
vn -0.6557 -0.2579 -0.7096
vn 0.6043 0.7951 -0.0516
vn 0.6167 0.7857 0.0498
vn -0.4992 -0.7173 -0.4861
vn 0.8090 -0.3022 0.5041
vn 0.6425 -0.5187 0.5641
vn 0.7360 -0.6740 -0.0633
vn -0.0687 0.6594 -0.7486
vn 0.3032 -0.2786 -0.9113
vn 0.3571 -0.2397 -0.9028
vn 0.0010 -1.0000 -0.0009
vn 0.0013 -1.0000 -0.0006
vn -0.0014 -1.0000 -0.0003
vn 0.9911 0.0715 -0.1124
vn 0.8205 0.5125 -0.2533
vn 0.4717 0.7277 -0.4980
vn -0.2474 0.1472 -0.9577
vn -0.2765 -0.1647 -0.9468
vn -0.1044 0.3536 -0.9295
vn -0.1411 0.3741 -0.9166
vn 0.9028 0.3683 -0.2220
vn 0.8855 0.3931 -0.2477
vn 0.7835 0.1564 0.6015
vn 0.8135 0.1177 0.5696
vn -0.0991 0.9258 -0.3649
vn -0.0111 0.6484 -0.7613
vn -0.1200 0.7070 -0.6970
vn -0.5637 0.8233 0.0666
vn -0.4354 0.8842 -0.1695
vn -0.2280 0.5117 -0.8283
vn 0.2108 0.6563 -0.7245
vn -0.6636 0.5544 -0.5023
vn -0.8249 0.1306 -0.5499
vn -0.8129 0.3438 -0.4700
vn -0.8167 0.2018 -0.5406
vn -0.3778 0.8927 0.2456
vn -0.8630 0.2820 -0.4192
vn -0.5461 0.2602 -0.7963
vn 0.1528 -0.8677 -0.4730
vn 0.0475 0.9920 0.1166
vn -0.2064 0.9411 0.2678
vn 0.7424 -0.4243 0.5184
vn 0.6810 0.5855 -0.4398
vn 0.4665 0.6175 -0.6333
vn -0.4169 -0.9069 0.0613
vn -0.3606 -0.9003 0.2439
vn 0.6362 -0.2910 -0.7145
vn 0.9386 -0.2632 0.2232
vn 0.9849 -0.0679 0.1593
vn 0.0481 0.5076 0.8602
vn -0.1407 0.5900 0.7951
vn 0.5245 -0.7273 0.4426
vn 0.2935 -0.7641 0.5744
vn 0.3009 -0.9015 -0.3111
vn 0.5682 0.7235 0.3921
vn 0.3021 -0.9531 0.0207
vn 0.8100 0.4708 0.3497
vn -0.7426 0.6630 0.0947
vn -0.9537 0.2180 0.2070
vn -0.4683 -0.1922 -0.8624
vn -0.2853 -0.0786 0.9552
vn 0.9906 0.1351 0.0208
vn 0.2460 -0.2783 -0.9285
vn 0.1163 -0.2110 -0.9706
vn 0.8237 0.2022 -0.5298
vn 0.5350 -0.4758 -0.6981
vn 0.6937 -0.2798 -0.6637
vn 0.7062 0.6506 0.2793
vn 0.7111 0.5674 0.4152
vn 0.5754 0.2395 -0.7820
vn -0.9990 -0.0432 0.0145
vn 0.8475 0.4332 0.3066
vn 0.6547 0.6113 0.4447
vn 0.7227 -0.6814 0.1158
vn 0.3855 -0.9075 -0.1666
vn 0.8576 -0.5143 0.0039
vn 0.2057 0.2515 -0.9457
vn 0.5058 0.2530 0.8247
vn 0.4211 -0.2017 0.8843
vn 0.2758 0.3503 0.8951
vn 0.2385 -0.1162 0.9642
vn 0.3059 -0.0471 0.9509
vn 0.4658 0.2442 0.8505
vn -0.0203 -0.0811 0.9965
vn 0.4440 -0.0321 0.8955
vn 0.2344 -0.4553 0.8590
vn 0.0298 0.1158 0.9928
vn 0.2424 -0.2245 0.9438
vn -0.1690 -0.1450 0.9749
vn 0.2029 0.4752 0.8562
vn 0.5157 -0.0917 0.8519
vn 0.3425 -0.1128 0.9327
vn 0.2364 0.0141 0.9716
vn 0.0216 -0.6195 0.7847
vn -0.4031 0.4519 0.7958
vn 0.3858 0.2629 0.8843
vn -0.4713 0.2341 0.8503
vn 0.6322 -0.0140 -0.7746
vn 0.0805 -0.8447 0.5291
vn -0.3141 -0.7797 0.5417
vn -0.3639 0.1026 -0.9258
vn -0.3325 -0.0161 -0.9430
vn -0.1535 0.1944 -0.9688
vn -0.2293 -0.0026 -0.9734
vn -0.2703 0.2152 -0.9384
vn -0.8487 0.4906 -0.1974
vn -0.9389 0.1582 0.3057
vn -0.2441 0.5353 0.8086
vn 0.5364 -0.5436 0.6456
vn 0.1109 -0.3511 -0.9298
vn 0.9627 0.0620 -0.2633
vn 0.9340 0.0155 -0.3569
vn 0.4482 -0.7463 -0.4920
vn 0.3889 -0.7860 -0.4806
vn -0.9676 -0.2095 -0.1411
vn -0.9210 -0.3550 0.1607
vn 0.7229 0.2661 0.6377
vn -0.8897 -0.4254 0.1656
vn 0.9301 -0.3447 0.1270
vn 0.9240 0.0720 0.3757
vn 0.9501 0.0236 0.3110
vn 0.9968 -0.0034 0.0793
vn 0.8143 -0.1300 0.5657
vn 0.9753 0.1796 0.1285
vn 0.9121 -0.1943 0.3610
vn 0.7759 0.0918 0.6241
vn 0.9395 -0.1454 0.3100
vn 0.9150 -0.1881 0.3569
vn 0.2655 -0.4222 0.8667
vn -0.1720 -0.8219 0.5431
vn 0.0002 -1.0000 0.0008
vn -0.3485 -0.8992 -0.2646
vn -0.4236 -0.8348 -0.3517
vn -0.5721 -0.7413 -0.3509
vn -0.1559 0.8992 -0.4087
vn -0.2629 0.9569 -0.1235
vn 0.0151 0.9899 -0.1413
vn 0.0241 0.9867 -0.1608
vn -0.0387 0.8591 0.5103
vn -0.0187 0.8982 -0.4391
vn 0.0908 0.9958 0.0078
vn -0.4249 0.8284 -0.3650
vn 0.5986 0.4590 -0.6565
vn 0.1011 0.1099 -0.9888
vn -0.0610 0.4560 -0.8879
vn 0.0906 0.4454 -0.8908
vn -0.1038 0.3549 0.9291
vn 0.1620 0.2348 -0.9585
vn -0.0306 -0.1567 -0.9872
vn -0.4787 0.4316 -0.7646
vn -0.0659 0.4770 -0.8764
vn -0.2581 0.2261 -0.9393
vn 0.1151 0.3980 -0.9101
vn 0.1162 0.3971 -0.9104
vn 0.1896 0.4513 0.8720
vn -0.7657 0.4776 0.4308
vn 0.3348 0.1378 0.9322
vn -0.7017 0.5465 0.4572
vn -0.9693 -0.2425 -0.0418
vn -0.9453 -0.3255 0.0235
vn -0.2275 -0.1166 0.9668
vn -0.3939 0.2082 0.8952
vn -0.0985 -0.2641 0.9595
vn -0.4058 0.1168 0.9065
vn -0.1979 0.0467 0.9791
vn 0.4855 -0.3455 0.8031
vn 0.5939 -0.2983 0.7472
vn 0.8077 -0.0617 -0.5864
vn 0.4522 0.7916 0.4109
vn 0.3651 0.7925 0.4886
vn 0.3025 0.9332 0.1939
vn 0.9007 0.1519 -0.4070
vn 0.7580 -0.1886 -0.6244
vn -0.8029 0.0806 -0.5907
vn 0.7451 0.3007 -0.5953
vn 0.5446 0.7034 -0.4568
vn 0.3160 0.7729 -0.5503
vn 0.4312 -0.2402 0.8697
vn -0.8403 0.2787 -0.4650
vn 0.5248 -0.0236 0.8509
vn 0.4836 -0.0337 0.8747
vn -0.4787 -0.1555 -0.8641
vn -0.7292 -0.4394 -0.5245
vn -0.5140 -0.1512 -0.8444
vn -0.4371 0.2452 -0.8653
vn -0.5566 -0.0945 -0.8254
vn -0.7417 0.1867 -0.6442
vn -0.8926 0.3670 -0.2620
vn -0.4300 0.3784 -0.8197
vn -0.8620 0.2140 -0.4596
vn -0.9342 0.3376 -0.1150
vn -0.9583 0.2773 0.0693
vn 0.1471 -0.9865 0.0713
vn -0.7128 -0.3279 0.6200
vn -0.7985 0.1294 0.5880
vn 0.1242 0.8376 -0.5321
vn 0.0451 0.9889 -0.1413
vn -0.1825 0.3532 0.9176
vn -0.0271 0.8041 0.5939
vn -0.3469 0.8193 0.4565
vn -0.0151 0.8081 0.5889
vn -0.0518 0.3438 0.9376
vn 0.2110 0.5784 0.7880
vn -0.0165 0.8160 -0.5779
vn -0.0649 0.4780 -0.8760
s 0
f 1//1 2//1 3//1
f 4//2 5//2 6//2
f 7//3 8//3 9//3
f 10//4 11//4 12//4
f 13//5 14//5 15//5
f 16//6 17//6 18//6
f 19//7 20//7 21//7
f 22//8 23//8 24//8
f 23//9 25//9 24//9
f 26//10 27//10 28//10
f 29//11 30//11 11//11
f 31//12 32//12 33//12
f 34//13 35//13 36//13
f 33//14 28//14 37//14
f 33//15 26//15 28//15
f 38//16 39//16 40//16
f 41//17 42//17 43//17
f 2//18 44//18 3//18
f 45//19 46//19 47//19
f 48//20 49//20 50//20
f 51//21 52//21 53//21
f 54//22 55//22 56//22
f 57//23 32//23 31//23
f 58//24 59//24 4//24
f 59//25 60//25 4//25
f 61//26 62//26 23//26
f 63//27 64//27 65//27
f 66//28 45//28 67//28
f 24//29 68//29 69//29
f 70//30 24//30 71//30
f 8//31 7//31 72//31
f 21//32 20//32 70//32
f 73//33 68//33 74//33
f 75//34 9//34 76//34
f 27//35 26//35 77//35
f 78//36 79//36 38//36
f 80//37 81//37 55//37
f 82//38 74//38 83//38
f 84//39 85//39 86//39
f 87//40 33//40 32//40
f 66//41 88//41 89//41
f 90//42 69//42 91//42
f 92//43 63//43 93//43
f 63//44 61//44 93//44
f 25//45 94//45 95//45
f 96//46 97//46 98//46
f 79//47 99//47 14//47
f 100//48 55//48 101//48
f 102//49 103//49 76//49
f 102//50 104//50 105//50
f 59//51 58//51 105//51
f 58//52 106//52 105//52
f 63//53 107//53 61//53
f 28//54 108//54 10//54
f 109//55 110//55 41//55
f 111//56 49//56 112//56
f 77//57 40//57 110//57
f 88//58 66//58 113//58
f 53//59 73//59 82//59
f 114//60 115//60 39//60
f 116//61 117//61 118//61
f 119//62 120//62 86//62
f 121//63 54//63 122//63
f 123//64 72//64 7//64
f 123//65 7//65 124//65
f 113//66 67//66 125//66
f 125//67 67//67 45//67
f 126//68 127//68 88//68
f 43//69 6//69 128//69
f 58//70 4//70 106//70
f 4//71 6//71 106//71
f 5//72 4//72 127//72
f 127//73 89//73 88//73
f 12//74 71//74 95//74
f 95//75 129//75 12//75
f 100//76 113//76 125//76
f 101//77 50//77 53//77
f 53//78 52//78 101//78
f 102//79 13//79 103//79
f 115//80 114//80 13//80
f 102//81 115//81 13//81
f 129//82 123//82 130//82
f 129//83 130//83 12//83
f 130//84 10//84 12//84
f 118//85 14//85 131//85
f 118//86 16//86 14//86
f 55//87 47//87 56//87
f 13//88 15//88 103//88
f 103//89 15//89 76//89
f 14//90 13//90 131//90
f 38//91 16//91 18//91
f 38//92 79//92 16//92
f 47//93 55//93 125//93
f 55//94 100//94 125//94
f 21//95 34//95 19//95
f 22//96 132//96 23//96
f 132//97 133//97 23//97
f 62//98 25//98 23//98
f 134//99 51//99 83//99
f 108//100 28//100 135//100
f 27//101 135//101 28//101
f 14//102 98//102 15//102
f 98//103 76//103 15//103
f 98//104 96//104 76//104
f 48//105 50//105 101//105
f 48//106 101//106 112//106
f 31//107 33//107 37//107
f 57//108 31//108 136//108
f 130//109 37//109 10//109
f 130//110 31//110 37//110
f 136//111 31//111 130//111
f 75//112 7//112 9//112
f 75//113 124//113 7//113
f 69//114 90//114 132//114
f 69//115 132//115 22//115
f 109//116 126//116 36//116
f 18//117 39//117 38//117
f 18//118 137//118 39//118
f 126//119 41//119 43//119
f 126//120 109//120 41//120
f 123//121 124//121 136//121
f 123//122 136//122 130//122
f 18//123 17//123 137//123
f 47//124 122//124 56//124
f 46//125 138//125 47//125
f 47//126 138//126 122//126
f 122//127 54//127 56//127
f 138//128 121//128 122//128
f 45//129 47//129 125//129
f 70//130 20//130 74//130
f 39//131 137//131 114//131
f 137//132 139//132 114//132
f 112//133 49//133 48//133
f 82//134 51//134 53//134
f 82//135 83//135 51//135
f 45//136 66//136 80//136
f 45//137 80//137 46//137
f 87//138 32//138 57//138
f 94//139 107//139 72//139
f 107//140 140//140 72//140
f 13//141 114//141 116//141
f 139//142 116//142 114//142
f 133//143 61//143 23//143
f 133//144 93//144 61//144
f 107//145 94//145 62//145
f 63//146 92//146 64//146
f 61//147 107//147 62//147
f 64//148 141//148 65//148
f 139//149 137//149 17//149
f 139//150 17//150 117//150
f 113//151 66//151 67//151
f 131//152 13//152 116//152
f 22//153 24//153 69//153
f 74//154 20//154 83//154
f 20//155 19//155 83//155
f 70//156 68//156 24//156
f 95//157 71//157 25//157
f 71//158 24//158 25//158
f 140//159 8//159 72//159
f 8//160 140//160 142//160
f 136//161 124//161 75//161
f 138//162 46//162 143//162
f 144//163 145//163 146//163
f 145//164 144//164 147//164
f 68//165 91//165 69//165
f 68//166 70//166 74//166
f 68//167 73//167 91//167
f 40//168 78//168 38//168
f 9//34 148//34 76//34
f 127//169 4//169 60//169
f 80//170 55//170 54//170
f 64//171 92//171 146//171
f 132//172 60//172 133//172
f 90//173 149//173 1//173
f 132//174 90//174 150//174
f 90//175 1//175 3//175
f 138//176 54//176 121//176
f 151//177 93//177 60//177
f 144//178 93//178 152//178
f 152//179 93//179 151//179
f 3//180 89//180 90//180
f 90//181 89//181 127//181
f 80//182 54//182 138//182
f 144//183 92//183 93//183
f 60//184 132//184 150//184
f 60//185 93//185 133//185
f 3//186 81//186 80//186
f 92//187 144//187 146//187
f 3//188 80//188 89//188
f 73//189 74//189 82//189
f 2//190 120//190 44//190
f 119//191 44//191 120//191
f 33//192 87//192 26//192
f 153//193 77//193 154//193
f 26//194 155//194 77//194
f 155//195 154//195 77//195
f 26//196 87//196 155//196
f 85//197 81//197 86//197
f 89//198 80//198 66//198
f 55//199 81//199 85//199
f 149//200 90//200 91//200
f 99//201 79//201 78//201
f 94//202 72//202 129//202
f 72//203 123//203 129//203
f 129//204 95//204 94//204
f 25//205 62//205 94//205
f 86//206 44//206 119//206
f 81//207 3//207 44//207
f 53//208 1//208 149//208
f 81//209 44//209 86//209
f 1//210 50//210 2//210
f 91//211 53//211 149//211
f 49//212 120//212 2//212
f 91//213 73//213 53//213
f 53//214 50//214 1//214
f 50//215 49//215 2//215
f 151//216 60//216 59//216
f 156//217 151//217 157//217
f 152//218 151//218 156//218
f 151//219 59//219 157//219
f 138//220 143//220 80//220
f 80//221 143//221 46//221
f 154//34 96//34 14//34
f 87//34 57//34 155//34
f 136//34 75//34 57//34
f 76//34 57//34 75//34
f 57//34 154//34 155//34
f 96//34 57//34 76//34
f 154//34 57//34 96//34
f 96//222 98//222 14//222
f 154//223 14//223 153//223
f 14//224 16//224 79//224
f 14//225 99//225 153//225
f 101//226 85//226 112//226
f 113//227 100//227 134//227
f 100//228 52//228 134//228
f 52//229 51//229 134//229
f 55//230 85//230 101//230
f 112//231 85//231 111//231
f 101//232 52//232 100//232
f 111//233 85//233 84//233
f 11//234 108//234 29//234
f 108//235 135//235 29//235
f 110//236 30//236 135//236
f 34//237 30//237 35//237
f 157//238 148//238 147//238
f 21//239 70//239 71//239
f 71//240 12//240 11//240
f 135//241 30//241 29//241
f 30//242 110//242 109//242
f 21//243 71//243 34//243
f 30//244 34//244 11//244
f 71//245 11//245 34//245
f 157//246 104//246 148//246
f 115//247 6//247 42//247
f 148//248 145//248 147//248
f 6//249 43//249 42//249
f 17//250 16//250 117//250
f 16//251 118//251 117//251
f 106//252 102//252 105//252
f 106//253 6//253 115//253
f 76//254 104//254 102//254
f 115//255 102//255 106//255
f 104//256 76//256 148//256
f 104//257 157//257 105//257
f 105//258 157//258 59//258
f 140//259 107//259 63//259
f 144//260 156//260 147//260
f 157//261 147//261 156//261
f 156//262 144//262 152//262
f 108//263 11//263 10//263
f 10//264 37//264 28//264
f 40//265 39//265 110//265
f 65//266 141//266 142//266
f 63//267 142//267 140//267
f 63//268 65//268 142//268
f 86//269 120//269 49//269
f 41//270 110//270 39//270
f 84//271 49//271 111//271
f 84//272 86//272 49//272
f 135//273 77//273 110//273
f 153//274 99//274 78//274
f 77//275 78//275 40//275
f 77//276 153//276 78//276
f 135//277 27//277 77//277
f 34//278 134//278 19//278
f 134//279 88//279 113//279
f 134//280 83//280 19//280
f 134//281 34//281 88//281
f 42//282 41//282 39//282
f 115//283 42//283 39//283
f 64//34 142//34 141//34
f 9//284 8//284 142//284
f 142//34 64//34 146//34
f 146//34 148//34 142//34
f 148//34 9//34 142//34
f 148//34 146//34 145//34
f 131//285 116//285 118//285
f 139//286 117//286 116//286
f 88//287 34//287 36//287
f 126//288 88//288 36//288
f 6//289 5//289 128//289
f 126//290 5//290 127//290
f 126//291 43//291 128//291
f 5//292 126//292 128//292
f 127//293 60//293 150//293
f 90//294 127//294 150//294
f 35//295 109//295 36//295
f 30//296 109//296 35//296
